<svg id="Layer_1" data-name="Layer 1" xmlns="http://www.w3.org/2000/svg" viewBox="0 0 2000 2000"><defs><style>.cls-1{fill:#fff;}</style></defs><title>C3X-logo</title><path class="cls-1" d="M586.84,1860.57c-24.43,24.09-56,35.28-90.24,35.28-88.21,0-125.52-60.72-125.86-122.46-.34-62.09,40-125.19,125.86-125.19,32.23,0,62.76,12.22,87.18,36.3l-29.85,28.84c-15.61-15.27-36.64-22.39-57.33-22.39-57.33,0-82.1,42.75-81.76,82.44.34,39.35,23.07,80.4,81.76,80.4,20.69,0,44.1-8.48,59.7-24.09Z"/><path class="cls-1" d="M771.71,1807c0,48.17-32.9,87.19-87.18,87.19s-86.85-39-86.85-87.19c0-47.83,33.25-87.18,86.51-87.18S771.71,1759.14,771.71,1807Zm-132.64,0c0,25.45,15.27,49.19,45.46,49.19S730,1832.42,730,1807c0-25.1-17.64-49.53-45.46-49.53C654.67,1757.44,639.07,1781.87,639.07,1807Z"/><path class="cls-1" d="M923.35,1890.43V1802.9c0-25.44-13.91-44.78-40.37-44.78-25.44,0-42.74,21.37-42.74,46.82v85.49h-41V1722.84h37l2.71,22.73c17-16.62,33.92-25.11,55-25.11,39.36,0,70.91,29.52,70.91,82.1v87.87Z"/><path class="cls-1" d="M1123.5,1890.43V1802.9c0-25.44-13.91-44.78-40.37-44.78-25.45,0-42.74,21.37-42.74,46.82v85.49H999.34V1722.84h37l2.72,22.73c17-16.62,33.92-25.11,55-25.11,39.36,0,70.91,29.52,70.91,82.1v87.87Z"/><path class="cls-1" d="M1253.42,1787v-36.64h34.27c24.08,0,49.52-6.45,49.86-28.5,0-13.57-10.85-31.55-48.85-31.55-21,0-49.53,7.47-49.53,29.18h-44.78c0-51.23,50.89-69.89,94.65-69.89,44.78,0,93,21.71,93.29,72.26,0,18.66-12.21,40.37-32.9,46.82,22.73,7.46,38.67,29.85,38.67,49.87,0,58-54.62,75.31-100.41,75.31-45.12,0-96.69-19-97-72.94h45.12c0,24.43,32.91,32.91,52.24,32.91,22.73,0,52.93-9.5,52.93-35,0-14.24-7.81-31.88-50.55-31.88Z"/><path class="cls-1" d="M1528.88,1723.18h49.53v1.36l-55,81.07,58.36,83.8v1h-49.54l-36.29-56-36.3,56h-49.53v-1l58.35-83.8-55-81.07v-1.36h49.53l32.91,56.65Z"/><path class="cls-1" d="M1685.81,762.84v-.07q-1.17-9.57-2.76-19.15a700.13,700.13,0,0,0-26.46-110.46v-.07c-1.92-6.1-3.91-12.13-6.1-18.16a710.32,710.32,0,0,0-106.2-195.73c-3-4-6.18-7.87-9.23-11.78A724.17,724.17,0,0,0,1343.59,240.5q-6.71-4-13.4-7.87h-.08A706.87,706.87,0,0,0,1032.8,141.4c-.71-.07-1.49-.15-2.2-.15q-6.27-.52-12.56-.85a12.62,12.62,0,0,0-1.63-.07,717,717,0,0,0-105.35,2c-154.93,14.19-297.81,76.83-411.45,178.77-3.55,3.19-7.1,6.38-10.5,9.72a706.51,706.51,0,0,0-62.86,66.47C342.19,498.44,288.56,618,269.05,744.75c-.78,5-1.57,10.15-2.2,15.25a720.26,720.26,0,0,0-3.12,160.4c17.52,190.41,108,362.58,255,484.81,129.75,108,289.72,165.58,456.44,165.58q33.19,0,66.68-3,32.25-3,63.78-8.73c5-.85,9.93-1.84,14.89-2.9a707.13,707.13,0,0,0,315.69-152.46c3.62-3,7.24-6,10.79-9.29A719,719,0,0,0,1612.67,1183c2.2-4.18,4.33-8.37,6.32-12.62C1681.91,1042.21,1703.62,900.11,1685.81,762.84Zm-79.38,401c-2.06,4.26-4.18,8.51-6.38,12.7A708,708,0,0,1,1443,1379.18q-6.49,5.74-13.19,11.49a693.48,693.48,0,0,1-315,152.1c-4.61,1-9.23,1.91-13.91,2.69-19.86,3.55-40,6.32-60.3,8.16-99.39,9.08-197.43-2.69-289.23-33.84h-.07c-4.82-1.63-9.64-3.33-14.47-5-2.62-1-5.11-1.92-7.73-3H729c-3.55-1.28-7.1-2.63-10.57-4.12a701.27,701.27,0,0,1-190.55-113.36c-102.16-84.92-176.43-194.45-217.15-317.46-2.2-6.46-4.19-12.91-6.17-19.44a711.67,711.67,0,0,1-23.84-294.12c.64-4.83,1.35-9.58,2.06-14.33a693.33,693.33,0,0,1,71.15-217.72c2.77-5.32,5.61-10.57,8.59-15.82a712.75,712.75,0,0,1,134.86-173c3.47-3.26,7-6.45,10.49-9.64C619.5,232.2,760,170.48,912.34,156.43q32.77-3,65.34-3c9.86,0,19.65.21,29.44.56,2,.15,4,.22,6,.36s4.11.21,6.24.35h.07c2.13.07,4.26.22,6.39.43a10.1,10.1,0,0,1,2,.14c3.76.21,7.45.5,11.14.85a692.14,692.14,0,0,1,289.58,92h.07c4.47,2.56,8.94,5.25,13.41,8a707.63,707.63,0,0,1,178.85,156.42c3.19,3.83,6.31,7.74,9.29,11.71a694.79,694.79,0,0,1,111.09,207.43c2.06,6.17,4,12.34,5.89,18.59v.07a691.81,691.81,0,0,1,19.65,82v.07c1.21,6.45,2.27,12.91,3.19,19.44a704.32,704.32,0,0,1,1.35,197.71c-.71,5.46-1.49,11-2.41,16.46A696.16,696.16,0,0,1,1606.43,1163.8Z"/><path class="cls-1" d="M975.2,1570.79c-166.71,0-326.7-57.62-456.45-165.57-147-122.25-237.53-294.43-255-484.79S304,544.28,426.25,397.31s294.44-237.53,484.81-255,376.14,40.23,523.11,162.5c303.38,252.38,344.87,704.53,92.49,1007.92-122.26,147-294.43,237.52-484.8,255Q1008.41,1570.8,975.2,1570.79Zm2.5-1417.35q-32.55,0-65.35,3C725.76,173.57,557,262.33,437.16,406.39S260.75,732.53,277.88,919.12s105.88,355.36,249.94,475.2S854,1570.74,1040.57,1553.6s355.35-105.89,475.18-249.94c247.38-297.37,206.71-740.56-90.65-987.94C1297.93,209.93,1141.09,153.44,977.7,153.44Z"/><path class="cls-1" d="M1413.75,1074.7l-1,1.06-2.69,2.77-7.17,7.52L1089.84,1413.3l-2.56,2.63-8.94,1.06-12.77-8.23L772.3,1219.56,759,1211l-135.64-87.47-15.82-10.22-2.41-9.36,2.27-4.26L798.62,748.58l12.49,6.81L620.7,1104.92l.29.14,20.36,13.13h.07l119.46,77.11,13.27,8.58,307,198,309.87-324,6.39-6.67-11.85-7.3-555.47-341L819,716.09l-1.13-3.19L816,707.65l189.2-531.28,7.88-22,5-14q6.29.32,12.56.85c.71,0,1.49.08,2.2.15l-1.84,5.1-3.13,8.8-2.41,6.74-194,544.62-.14.35,14.26,8.8L1399,1055.62h.07l7,4.25,3.12,2,3.2,1.91Z"/><polygon class="cls-1" points="619.46 1119.41 618.69 1105.23 1406.97 1062.78 1675.34 947.85 1680.92 960.89 1411.39 1076.32 1408.98 1076.88 619.46 1119.41"/><path class="cls-1" d="M1120.55,1556.11c-5,1.06-9.93,2.05-14.89,2.9l-2.56-4.18-.92-2.34-1.35-7-24.12-125.35L751.3,1519.78h-.07L731.16,1526l-1.63-5.4-2.56-8.15,2-.64H729l8.37-2.56,328.17-100.45,14.55-4.47,9,5.39.71,3.62,24.9,129.47,1.13,5.74Z"/><polygon class="cls-1" points="722.23 1521.13 605.82 1113.8 299.8 1075.5 296.74 1062.56 805.09 723.99 812.96 735.8 320.49 1063.79 612.23 1100.3 618.17 1105.39 726.22 1483.43 813.73 755.85 827.82 757.54 736.1 1520.03 722.23 1521.13"/><path class="cls-1" d="M1447,1394.36c-3.55,3.26-7.17,6.31-10.79,9.29l-4.54-5.46-1.63-4-.28-3.55-26.89-304.62-.78-8.8-.57-6.81-1.2-7.3-1.28-7.52H1399l-93.5-550.44L845.59,715.81l-15.54,7.09L818.91,728l-2.48.57-7.95.49-12.27.78L280.68,763.27l-5.53.35L271,762.56,266.85,760c.63-5.1,1.42-10.21,2.2-15.25l7.44,4.61,6.25-.42,502.19-32.49h.14l5.25-.36,7.81-.5,1.77-.14,14.33-.92,3.62-1.63,13.62-6.24,468.07-214.39,8.44-3.83.5.28,9.43,5,.14.92v.07l2.7,15.61,91.44,538.3,1.92,11.14,1.49,8.87.5,5.74.7,7.67L1443,1379.18l1,11.56Z"/><path class="cls-1" d="M809.69,707.15l-9.79,8.3-1.06.92-.71-.78-5-6-6.88-8.15L648.16,538.38l-12.35-14.61-64.48-76.19-74-105.14-8.23-11.63c3.4-3.34,6.95-6.53,10.5-9.72l8.22,11.71,74.71,106.12,69.31,81.87,9.22,10.92Z"/><path class="cls-1" d="M1030.6,141.25l-.35,4.33-.29,3-2,4.33-2.2,2.27-3.27,3.4-17.31,17.81L661.07,531.71l-4.47,4.62-5.32,2.12-3.12-.07-260.22-8L786.21,701.48l8.79,3.76-1.91,4.39-2.77,6.46-.92,2.2-4.33-1.84H785L353.89,531.22l-6-2.56L351,515l11.5.36,273.33,8.37,12.77.42,3.27-3.4L1007.12,154l8.94-9.22.35-4.47a12.62,12.62,0,0,1,1.63.07Q1024.33,140.72,1030.6,141.25Z"/><path class="cls-1" d="M1343.59,240.5,1342,256.11l-22.91,228.36-1.07,10.21-.07.93-10.85,3.33-1.63.5-6-7.17L1025.42,162l-2.91-3.48-3.12-3.83h-.07l-1.84-2.27,10.92-9.08,1.85,2.2.71.92,8,9.65,266.6,321.15,23-229.14h.07l1.49-15.53h.08Q1336.9,236.46,1343.59,240.5Z"/><path class="cls-1" d="M1685.81,762.77,1670,751.85l-57-39.38-11.71-8.09L1320.75,510.29l-13.83-9.58.21-1.77,1.35-10.22.07-.49,10.57-3.76,201.76-71.94,14.18-5.11c3,3.91,6.18,7.81,9.23,11.78l-14.12,5L1326.35,497,1608.2,691.83l11.71,8.09,46.89,32.42v.07l16.25,11.21Q1684.64,753.19,1685.81,762.77Z"/><path class="cls-1" d="M1656.59,633.09v.07l-9.44,17.1v.07l-27.24,49.59L1613,712.47l-188.35,342.72-6.39,11.63,6.89,3.62h.07l181.18,93.36,12.56,6.53c-2,4.25-4.12,8.44-6.32,12.62l-12.62-6.45L1416.8,1082l-6.73-3.48-2.91-1.56h-.07l-1.71-.85-3-9.72,1.92-3.48,1.7-3.05,6.17-11.28,189.13-344.21,6.88-12.55,33.06-60.16,9.23-16.74C1652.68,621,1654.67,627,1656.59,633.09Z"/><circle class="cls-1" cx="1022.91" cy="147.94" r="66.94"/><circle class="cls-1" cx="818.23" cy="723.39" r="50.64"/><circle class="cls-1" cx="1309.21" cy="491.4" r="50.64"/><circle class="cls-1" cx="656.13" cy="524.59" r="50.64"/><circle class="cls-1" cx="728.66" cy="1520.22" r="50.64"/><circle class="cls-1" cx="1401.68" cy="1076.92" r="50.64"/><circle class="cls-1" cx="1076.86" cy="1413.34" r="33.25"/><circle class="cls-1" cx="618.27" cy="1113.58" r="33.25"/><circle class="cls-1" cx="292.73" cy="1067.67" r="33.25"/><circle class="cls-1" cx="499.69" cy="339.49" r="33.25"/><circle class="cls-1" cx="1429.49" cy="1380.56" r="70.93"/></svg>